<?xml version="1.0" encoding="UTF-8" standalone="no"?>
<svg
   xmlns:dc="http://purl.org/dc/elements/1.1/"
   xmlns:cc="http://creativecommons.org/ns#"
   xmlns:rdf="http://www.w3.org/1999/02/22-rdf-syntax-ns#"
   xmlns:svg="http://www.w3.org/2000/svg"
   xmlns="http://www.w3.org/2000/svg"
   viewBox="0 0 595.27557 841.88977"
   id="svg17"
   height="841.88977"
   width="595.27557"
   version="1.1">
  <metadata
     id="metadata23">
    <rdf:RDF>
      <cc:Work
         rdf:about="">
        <dc:format>image/svg+xml</dc:format>
        <dc:type
           rdf:resource="http://purl.org/dc/dcmitype/StillImage" />
      </cc:Work>
    </rdf:RDF>
  </metadata>
  <defs
     id="defs21" />
  <g
     id="Layer1000">
    <path
       id="path2"
       style="fill:#e30016;fill-rule:evenodd"
       d="M 183.9146,164.41 H 406.7308 V 387.2259 H 183.9146 Z" />
    <path
       id="path4"
       style="fill:#ffffff;fill-rule:evenodd"
       d="M 189.4337,168.5358 H 402.5339 V 383.0289 H 188.0408 V 168.5358 Z m 1.3929,211.7081 H 399.7488 V 171.322 H 190.8266 Z" />
    <path
       id="path6"
       style="fill:#ffffff;fill-rule:evenodd"
       d="m 257.7146,317.742 c 0.2623,-0.472 0.7351,-0.7342 1.3122,-0.8921 0.5238,-0.1049 1.0488,0 1.5219,0.3149 0.5242,0.3152 0.7869,0.682 0.944,1.2592 0.1051,0.578 0,1.0499 -0.315,1.5749 -0.3149,0.472 -0.7339,0.7869 -1.3118,0.8921 -0.5772,0.1048 -1.101,0 -1.5741,-0.315 -0.472,-0.3152 -0.7339,-0.735 -0.8391,-1.3121 -0.1049,-0.525 0,-1.05 0.2619,-1.5219 z m -6.7169,-5.1421 1.6271,-1.8371 -0.7339,-0.682 0.4189,-0.5239 0.7881,0.682 1.311,1.154 0.7347,0.6299 -0.4198,0.5241 -0.7342,-0.629 -4.5127,5.195 0.682,0.6291 -0.4201,0.4719 -0.7342,-0.5771 -1.6268,-1.4159 c -0.735,-0.6299 -1.3121,-1.3119 -1.5741,-1.9939 -0.3149,-0.6832 -0.1578,-1.417 0.5242,-2.2042 0.2627,-0.315 0.525,-0.525 0.8399,-0.682 0.3149,-0.1579 0.682,-0.2628 1.0491,-0.2628 0.3679,0.053 0.7877,0.1579 1.26,0.3679 0.472,0.2619 0.9439,0.629 1.5208,1.154 z m -0.419,0.472 c -0.1579,-0.2101 -0.4198,-0.3671 -0.735,-0.525 -0.2619,-0.157 -0.629,-0.2089 -1.0488,-0.157 -0.4201,0.053 -0.7872,0.3149 -1.207,0.8399 -0.4201,0.5241 -0.5772,1.0491 -0.4201,1.521 0.1579,0.4201 0.4719,0.8402 0.9451,1.207 z m -5.4048,-4.5649 c 0.6817,-0.525 1.1018,-1.1021 1.3637,-1.6271 0.2631,-0.5769 0.3683,-1.0491 0.3153,-1.5211 -0.0522,-0.472 -0.2623,-0.8918 -0.525,-1.207 -0.2622,-0.3149 -0.5772,-0.525 -1.0491,-0.682 -0.4201,-0.1579 -0.9451,-0.1579 -1.5219,0 -0.5772,0.157 -1.207,0.472 -1.8891,1.0491 -0.682,0.5771 -1.1539,1.1021 -1.4161,1.679 -0.2098,0.5249 -0.315,1.0499 -0.2628,1.5219 0.1049,0.4722 0.2628,0.8402 0.525,1.154 0.4198,0.5252 1.0488,0.7871 1.836,0.8402 0.788,0 1.6798,-0.368 2.624,-1.207 z m 1.3119,1.5738 c -0.525,0.4722 -1.207,0.735 -1.9409,0.892 -0.735,0.1052 -1.5222,0.053 -2.2572,-0.2619 -0.7869,-0.2619 -1.469,-0.735 -2.0458,-1.417 -0.5783,-0.6821 -0.8921,-1.4171 -1.0502,-2.2561 -0.1568,-0.7869 -0.1049,-1.522 0.1581,-2.2558 0.2619,-0.7351 0.629,-1.3122 1.2059,-1.785 0.578,-0.472 1.207,-0.7872 1.9942,-0.8921 0.735,-0.157 1.4697,-0.0521 2.2569,0.2101 0.7869,0.3149 1.4159,0.7869 1.9939,1.47 0.5771,0.682 0.9439,1.4159 1.1021,2.2028 0.157,0.8402 0.1049,1.5752 -0.1582,2.3091 -0.2619,0.735 -0.6817,1.3119 -1.2588,1.7839 z m -14.3779,-12.121 1.995,-1.207 0.3668,0.5772 c -0.4198,0.263 -0.6299,0.6828 -0.735,1.2069 -0.0519,0.525 0.053,1.05 0.3682,1.522 0.2619,0.4201 0.6287,0.735 1.101,0.945 0.4198,0.209 0.9448,0.3141 1.5738,0.209 0.6301,-0.1041 1.26,-0.3671 1.942,-0.7869 0.8402,-0.5772 1.364,-1.2592 1.6789,-1.9942 0.2623,-0.7869 0.1571,-1.5208 -0.3149,-2.3088 -0.5238,-0.7342 -1.2588,-1.2062 -2.2561,-1.3111 l 0.053,-0.735 c 1.2592,0.2631 2.2561,0.8921 2.9381,1.942 0.4201,0.629 0.6821,1.3111 0.7869,2.0991 0.1052,0.8388 0,1.5738 -0.3668,2.308 -0.3152,0.6828 -0.8402,1.3118 -1.5222,1.7838 -0.6817,0.4201 -1.4167,0.6831 -2.2039,0.735 -0.7869,0 -1.5208,-0.1579 -2.2039,-0.5768 -0.6821,-0.368 -1.2589,-0.9451 -1.679,-1.732 -0.3671,-0.682 -0.525,-1.417 -0.472,-2.1512 h -0.735 z m -4.3552,-8.081 2.0991,-1.0488 0.3149,0.6298 c -0.4198,0.2101 -0.682,0.6291 -0.7869,1.154 -0.1052,0.525 -0.053,1.0491 0.2101,1.5222 0.2097,0.472 0.5249,0.8388 0.9969,1.0489 0.4201,0.263 0.9439,0.367 1.5741,0.367 0.6298,-0.0521 1.2588,-0.2619 1.9939,-0.682 0.892,-0.4719 1.4689,-1.1021 1.8371,-1.836 0.3668,-0.735 0.3138,-1.47 -0.106,-2.3091 -0.4723,-0.7869 -1.1543,-1.2588 -2.1512,-1.4689 l 0.1051,-0.735 c 1.26,0.3671 2.204,1.1021 2.7808,2.152 0.3683,0.6821 0.5772,1.416 0.6302,2.2031 0,0.7869 -0.1579,1.575 -0.5772,2.257 -0.3679,0.682 -0.9447,1.207 -1.6798,1.6259 -0.7341,0.368 -1.4692,0.578 -2.2561,0.525 -0.7869,0 -1.5219,-0.2619 -2.1509,-0.735 -0.682,-0.419 -1.1551,-1.0491 -1.5219,-1.889 -0.3152,-0.682 -0.4201,-1.4159 -0.2622,-2.151 l -0.7869,-0.053 z m 3.9359,-6.664 -5.8768,-1.889 -0.263,0.053 0.3149,0.944 -0.682,0.21 -0.3149,-0.892 -0.5242,-1.679 -0.3149,-0.9439 0.682,-0.2101 0.315,0.8921 6.559,-2.0991 -0.3149,-0.9448 0.6299,-0.2092 0.3152,0.944 0.5238,1.6792 0.315,0.8918 -0.6299,0.21 -0.3149,-0.892 -5.1421,1.6792 5.8249,1.889 0.419,-0.157 -0.3141,-0.8921 0.682,-0.263 0.2622,0.945 0.5769,1.679 0.3149,0.9439 -0.6817,0.2101 -0.2622,-0.9439 -6.5588,2.1509 0.2619,0.892 -0.6301,0.2101 -0.315,-0.8921 -0.5768,-1.7319 -0.2622,-0.8921 0.682,-0.21 0.2622,0.945 z m -8.5529,-12.96 6.821,-1.207 -0.2098,-0.9969 0.6817,-0.1049 0.2101,0.997 0.263,1.7308 0.2089,0.9451 -0.682,0.1051 -0.2097,-0.945 -2.5711,0.4728 c 0,0.3671 0.1049,0.682 0.2631,0.7872 0.1568,0.157 0.3668,0.2619 0.6817,0.3668 l 2.2561,0.735 c 0.4731,0.157 0.735,0.5241 0.8399,1.1021 0.1052,0.5241 0.1571,0.9969 0.1052,1.4689 l -0.6832,0.1571 c 0,-0.0519 0,-0.1049 0,-0.1049 -0.0518,-0.0522 -0.0518,-0.1052 -0.0518,-0.1571 -0.0519,-0.21 -0.1049,-0.3671 -0.2101,-0.4201 -0.1049,-0.157 -0.3671,-0.3149 -0.7869,-0.4719 l -1.4692,-0.525 c -0.4719,-0.157 -0.7869,-0.4201 -0.8917,-0.735 h -0.0531 c 0,0.3149 -0.0521,0.6301 -0.21,0.945 -0.1052,0.3671 -0.3141,0.6299 -0.5771,0.8921 -0.262,0.2619 -0.629,0.4198 -0.997,0.472 -0.4201,0.1049 -0.839,0.053 -1.2588,-0.1052 -0.3671,-0.157 -0.7351,-0.472 -0.9973,-0.8388 -0.3149,-0.4201 -0.525,-0.945 -0.6298,-1.574 l -0.5242,-2.886 -0.1579,-0.9451 0.6821,-0.157 z m 0.3152,1.7312 c 0.104,1.417 0.7869,2.099 2.0979,1.942 0.735,-0.1052 1.207,-0.368 1.417,-0.8402 0.2101,-0.4198 0.2101,-0.997 0,-1.7309 z m 3.5149,-13.5902 c 0.5769,0 1.05,0.2622 1.4689,0.682 0.368,0.4201 0.578,0.8921 0.525,1.4692 0,0.5769 -0.21,1.05 -0.6298,1.4689 -0.419,0.368 -0.9443,0.578 -1.5211,0.525 -0.5771,0 -1.05,-0.21 -1.4171,-0.629 -0.42,-0.4201 -0.5768,-0.9451 -0.5768,-1.5219 0,-0.5771 0.2619,-1.05 0.6817,-1.4171 0.4201,-0.42 0.8921,-0.5771 1.4692,-0.5771 z m 4.0411,-8.4478 -0.21,0.8918 -0.1582,0.9442 -0.682,-0.1052 0.21,-0.9969 -6.7688,-1.311 -0.4201,1.9939 0.892,0.157 -0.157,0.735 -1.5219,-0.3149 1.364,-7.1359 1.5219,0.314 -0.1051,0.7348 -0.8918,-0.1568 -0.3671,1.9409 6.7688,1.3119 0.1571,-0.9448 0.6831,0.1579 -0.1581,0.9439 z m -1.417,-7.7142 2.3609,0.6831 0.2631,-0.945 0.6817,0.21 -0.3149,0.944 -0.4728,1.7319 -0.2622,0.8921 -0.682,-0.2101 0.2622,-0.892 -6.611,-1.889 -0.2631,0.892 -0.682,-0.157 0.2631,-0.9448 0.629,-2.046 c 0.2628,-0.997 0.6298,-1.732 1.1018,-2.3091 0.525,-0.5769 1.26,-0.7351 2.257,-0.4201 0.367,0.1051 0.682,0.2622 0.9972,0.4731 0.2619,0.2089 0.472,0.4719 0.629,0.839 0.1579,0.315 0.2098,0.7869 0.2098,1.2589 -0.0519,0.525 -0.1571,1.1551 -0.3668,1.889 z m -0.6302,-0.157 c 0.1052,-0.262 0.1582,-0.5769 0.2101,-0.8918 0,-0.3671 -0.1049,-0.682 -0.315,-1.05 -0.2622,-0.3141 -0.682,-0.5771 -1.3121,-0.7341 -0.629,-0.1579 -1.154,-0.0531 -1.5208,0.2619 -0.3682,0.3152 -0.5783,0.7872 -0.682,1.3651 z m 3.096,-8.6579 -2.8859,-2.9911 -0.3671,0.8402 -0.682,-0.2631 0.9972,-2.361 0.629,0.262 -0.3671,0.8399 4.8799,5.0371 c 0.3152,0.315 0.5771,0.6299 0.682,0.8921 0.1581,0.2628 0.1581,0.6299 0,1.0499 -0.1571,0.3671 -0.4198,0.6821 -0.682,0.8921 l -0.84,-0.8921 c 0.368,-0.21 0.5772,-0.42 0.6302,-0.6301 0.1049,-0.2619 0.053,-0.5768 -0.2101,-0.8918 l -0.2622,-0.21 -6.5599,0.6298 -0.2619,0.6821 -0.629,-0.262 1.311,-3.2541 0.6299,0.263 -0.3668,0.8921 4.3029,-0.368 0.262,0.053 0.0518,-0.053 z m 0.1052,-10.0749 7.9758,1.4168 0.472,-0.8399 2.571,1.5219 -0.6298,1.1021 -1.9942,-1.154 -3.043,5.2999 1.9942,1.101 -0.682,1.1551 -2.5711,-1.5219 0.472,-0.7872 -4.6701,-5.667 -0.4201,0.7872 -0.6287,-0.3671 0.472,-0.8399 z m 1.2588,2.0469 3.621,4.407 1.9942,-3.4631 -5.5103,-1.1018 -0.3668,-0.157 -0.053,0.0518 z m 10.81,-10.1801 c 0.4719,0.3671 0.682,0.8402 0.7341,1.4171 0.0531,0.5771 -0.157,1.0491 -0.5249,1.521 -0.3671,0.4199 -0.8391,0.6299 -1.4162,0.6829 -0.578,0.0522 -1.05,-0.1049 -1.5219,-0.472 -0.4201,-0.4198 -0.6299,-0.8929 -0.6821,-1.47 -0.0518,-0.5769 0.1049,-1.0488 0.472,-1.4689 0.4201,-0.472 0.8921,-0.682 1.4692,-0.735 0.525,-0.0519 1.05,0.1051 1.4698,0.5249 z m 5.667,-6.7688 2.0982,2.624 0.7347,-0.6301 0.4201,0.5771 -0.735,0.5769 -1.417,1.1021 -0.7339,0.578 -0.472,-0.525 0.7869,-0.5772 -4.2508,-5.4569 -0.7342,0.5771 -0.472,-0.525 0.7869,-0.5771 1.4171,-1.1551 0.7341,-0.5769 0.4199,0.5769 -0.7351,0.578 1.7323,2.2561 2.9378,-2.3089 -1.7838,-2.2042 -0.7342,0.5771 -0.4198,-0.5241 0.7347,-0.5768 1.4162,-1.1551 0.735,-0.5769 0.472,0.5769 -0.7872,0.5779 4.2503,5.404 0.7347,-0.5768 0.4723,0.5249 -0.7872,0.629 -1.417,1.1019 -0.7339,0.5771 -0.4201,-0.5241 0.735,-0.6299 -2.0469,-2.624 z m 11.543,-6.0341 -3.2001,1.7311 0.2101,1.732 0.7872,-0.472 0.3137,0.6299 -2.0979,1.2061 -0.3679,-0.629 0.7869,-0.4201 -0.944,-8.1329 0.84,-0.4731 6.6112,4.985 0.8388,-0.472 0.3152,0.6299 -3.2531,1.7841 -0.3152,-0.578 0.8402,-0.4719 z m -3.7251,-2.7289 0.4201,3.778 2.7281,-1.5211 -3.0951,-2.3091 -0.1061,-0.2628 -0.0518,0.0528 z m 9.1302,-1.154 1.0499,2.2558 0.8921,-0.3668 0.2619,0.6298 -0.8921,0.3671 -1.6268,0.7339 -0.892,0.4201 -0.262,-0.629 0.8399,-0.4201 -2.781,-6.2969 -0.8918,0.4201 -0.2631,-0.682 0.8918,-0.3682 1.942,-0.8918 c 0.8921,-0.3671 1.7312,-0.5771 2.5181,-0.5771 0.735,0 1.3121,0.4719 1.7319,1.417 0.1571,0.3671 0.2622,0.735 0.2622,1.0491 0.053,0.368 -0.0521,0.7348 -0.21,1.05 -0.1571,0.3668 -0.472,0.682 -0.8391,0.9969 -0.4201,0.3149 -0.9969,0.629 -1.7319,0.8921 z m -0.262,-0.5772 c 0.262,-0.053 0.5769,-0.21 0.8391,-0.4198 0.2628,-0.21 0.4728,-0.4731 0.578,-0.892 0.1049,-0.3671 0.0518,-0.8921 -0.2631,-1.4701 -0.2619,-0.5771 -0.682,-0.9439 -1.154,-0.9961 -0.5249,-0.053 -0.9969,0.0522 -1.5222,0.3141 z m 6.454,-2.9389 c 0.21,0.8399 0.5249,1.4689 0.892,1.942 0.4198,0.472 0.8399,0.7869 1.26,0.8921 0.472,0.157 0.8909,0.157 1.311,0.0518 0.3668,-0.1048 0.7351,-0.3149 1.05,-0.6298 0.3141,-0.3671 0.5768,-0.7872 0.682,-1.4162 0.1049,-0.5769 0.0519,-1.3119 -0.1582,-2.1518 -0.2619,-0.839 -0.5768,-1.5211 -0.9439,-1.9942 -0.3668,-0.4189 -0.7869,-0.7339 -1.2589,-0.839 -0.4731,-0.1579 -0.8932,-0.1579 -1.3121,-0.053 -0.6299,0.1581 -1.1549,0.6301 -1.4701,1.3121 -0.3668,0.7351 -0.3668,1.679 -0.0518,2.886 z m -1.9939,0.525 c -0.1582,-0.6821 -0.1582,-1.4171 0.053,-2.151 0.2089,-0.735 0.5768,-1.3651 1.154,-1.942 0.5768,-0.5771 1.3118,-0.9969 2.1509,-1.207 0.8921,-0.21 1.732,-0.2619 2.5189,-0.0521 0.7871,0.2092 1.417,0.5771 1.9941,1.1021 0.525,0.5771 0.8921,1.154 1.1019,1.8881 0.21,0.6829 0.157,1.4168 -0.0531,2.1518 -0.2097,0.7342 -0.5768,1.4171 -1.1539,1.9412 -0.5769,0.578 -1.3119,0.9969 -2.151,1.207 -0.892,0.263 -1.6801,0.263 -2.5188,0.053 -0.7872,-0.2101 -1.4171,-0.5772 -1.9942,-1.1021 -0.525,-0.525 -0.8921,-1.154 -1.1018,-1.889 z m 14.1148,-7.5561 3.6731,7.1881 0.9448,-0.104 0.3671,2.9911 -1.2589,0.1568 -0.3152,-2.3089 -5.9819,0.7351 0.2622,2.3079 -1.311,0.1579 -0.3683,-2.9908 0.9451,-0.1052 1.7311,-7.1359 -0.892,0.1049 -0.1049,-0.682 0.9969,-0.1579 z m -0.8391,2.2561 -1.3648,5.51 3.988,-0.472 -2.414,-5.0901 -0.1051,-0.368 h -0.1041 z m 7.8183,1.3649 c 0,0.8391 0.1567,1.5211 0.4198,2.0982 0.2622,0.525 0.5771,0.9448 0.9969,1.1548 0.4193,0.262 0.7872,0.3671 1.207,0.3671 0.4193,0 0.8391,-0.157 1.207,-0.3671 0.4193,-0.263 0.7342,-0.6298 0.9973,-1.2069 0.2619,-0.525 0.3668,-1.2589 0.3668,-2.151 -0.0531,-0.8929 -0.1579,-1.5749 -0.4199,-2.099 -0.2622,-0.578 -0.6301,-0.9451 -0.9969,-1.207 -0.4201,-0.2101 -0.8391,-0.315 -1.2592,-0.315 -0.6828,0 -1.26,0.315 -1.7841,0.8921 -0.525,0.6299 -0.7877,1.5738 -0.7347,2.8338 z m -2.0461,0 c 0,-0.6829 0.1571,-1.417 0.5239,-2.0469 0.3682,-0.682 0.945,-1.207 1.6271,-1.6271 0.7339,-0.4189 1.5219,-0.629 2.4139,-0.682 0.8921,0 1.679,0.2101 2.4132,0.5771 0.682,0.368 1.26,0.893 1.6798,1.575 0.3671,0.629 0.5771,1.311 0.5771,2.046 0.0519,0.735 -0.1581,1.4171 -0.5249,2.0991 -0.3671,0.682 -0.9443,1.207 -1.6271,1.6259 -0.6821,0.4201 -1.5211,0.6299 -2.4132,0.6299 -0.8399,0.053 -1.6789,-0.1568 -2.414,-0.5239 -0.682,-0.4201 -1.26,-0.945 -1.6268,-1.5749 -0.4189,-0.682 -0.629,-1.364 -0.629,-2.0982 z m 15.427,0.3141 v 0.053 c 0.5769,0.1049 1.0488,0.3671 1.4159,0.7339 0.368,0.3682 0.525,0.892 0.472,1.5222 -0.0519,0.735 -0.419,1.3119 -1.0488,1.6789 -0.6302,0.368 -1.364,0.525 -2.1512,0.4199 l -4.0408,-0.525 0.053,-0.682 0.9439,0.1581 0.8399,-6.874 -0.945,-0.1051 0.1051,-0.6829 3.8311,0.4731 c 0.9969,0.1049 1.6789,0.419 2.046,0.8388 0.3149,0.4201 0.472,0.892 0.472,1.3121 -0.0522,0.472 -0.2622,0.8921 -0.5772,1.207 -0.3671,0.3149 -0.839,0.472 -1.4159,0.472 z m -2.5721,3.5161 0.735,0.1049 c 0.472,0.0521 0.9439,-0.053 1.3122,-0.315 0.4198,-0.2619 0.629,-0.682 0.629,-1.154 0.1048,-0.682 -0.0522,-1.1551 -0.472,-1.417 -0.3671,-0.2619 -0.7872,-0.3679 -1.207,-0.4201 l -0.5771,-0.1049 z m 0.5249,-3.9881 0.5772,0.053 c 0.4731,0.0519 0.892,-0.053 1.207,-0.3149 0.3149,-0.2631 0.5249,-0.578 0.5249,-0.9972 0.0522,-0.315 -0.053,-0.6299 -0.2619,-0.9448 -0.263,-0.3152 -0.6301,-0.472 -1.1551,-0.5241 l -0.5768,-0.1049 z m 9.8122,0.1049 -0.1571,0.3152 -3.306,4.5119 c -0.2101,0.2631 -0.4198,0.4201 -0.629,0.578 -0.2628,0.157 -0.525,0.21 -0.8918,0.104 -0.2631,-0.0521 -0.5253,-0.2089 -0.788,-0.3671 l 0.8917,-1.2069 c 0.1052,0.21 0.2631,0.3149 0.4201,0.3679 0.262,0.0521 0.525,-0.053 0.7351,-0.4198 l 3.778,-5.038 -0.8921,-0.2092 0.1571,-0.6829 0.945,0.2631 1.2589,0.3149 0.735,8.081 0.8391,0.2089 -0.2101,0.6301 -3.4631,-0.892 0.2101,-0.682 0.892,0.2619 -0.5249,-5.7719 0.053,-0.3141 z m 8.8679,7.4511 -3.4098,-1.3121 -1.1551,1.2591 0.8399,0.315 -0.2628,0.6301 -2.3083,-0.8921 0.2092,-0.6301 0.8921,0.3152 5.563,-5.9822 0.9439,0.3682 0.472,8.3429 0.8399,0.315 -0.263,0.629 -3.4628,-1.3111 0.263,-0.682 0.8918,0.3671 z m -0.315,-4.617 -2.6228,2.781 2.8859,1.101 -0.1582,-3.8299 0.053,-0.2622 h -0.053 z m 13.2761,4.6701 -1.1021,2.046 -0.6299,-0.3152 c 0.2101,-0.419 0.2101,-0.8918 0,-1.4168 -0.157,-0.5241 -0.5241,-0.892 -0.9969,-1.1542 -0.4723,-0.262 -0.9442,-0.3668 -1.4162,-0.315 -0.525,0.053 -0.9969,0.2101 -1.5219,0.6302 -0.472,0.3668 -0.9451,0.8918 -1.3122,1.6259 -0.4198,0.8929 -0.5768,1.732 -0.4719,2.5719 0.1051,0.7872 0.5771,1.4162 1.364,1.836 0.8402,0.4201 1.679,0.4201 2.624,0 l 0.315,0.735 c -1.207,0.3671 -2.414,0.315 -3.5159,-0.263 -0.682,-0.3668 -1.2591,-0.8388 -1.7319,-1.5208 -0.472,-0.6302 -0.7342,-1.3652 -0.7872,-2.1521 -0.0519,-0.7869 0.1052,-1.521 0.472,-2.3079 0.3682,-0.6832 0.8932,-1.26 1.5752,-1.6801 0.682,-0.419 1.4159,-0.629 2.2039,-0.629 0.7869,0.0521 1.5741,0.2619 2.308,0.7341 0.6298,0.4198 1.1551,0.9448 1.47,1.6798 l 0.629,-0.3679 z m -0.525,10.0218 -0.7341,-0.5768 -0.7881,-0.5771 0.4731,-0.525 0.7342,0.5771 4.2508,-5.4051 -1.5749,-1.2591 -0.5241,0.682 -0.6299,-0.4198 0.997,-1.2592 5.7189,4.4601 -0.944,1.26 -0.6298,-0.4729 0.525,-0.682 -1.5223,-1.2591 -4.2499,5.4569 0.735,0.5772 -0.4198,0.5768 -0.7872,-0.6298 z m 6.9271,2.886 6.139,-0.8399 0.21,-0.2101 -0.682,-0.682 0.5238,-0.4719 0.6302,0.6301 1.2588,1.311 0.6832,0.6829 -0.525,0.5241 -0.682,-0.7342 -4.9331,4.775 0.682,0.7342 -0.5242,0.4719 -0.682,-0.7341 -1.207,-1.2589 -0.6817,-0.682 0.5238,-0.4731 0.6302,0.682 3.9348,-3.778 -6.0869,0.8921 -0.3671,0.3149 0.6821,0.682 -0.472,0.4731 -0.682,-0.682 -1.207,-1.26 -0.682,-0.735 0.4719,-0.472 0.682,0.735 4.9851,-4.828 -0.6821,-0.682 0.472,-0.4719 0.682,0.682 1.26,1.3119 0.6302,0.682 -0.4731,0.4719 -0.6821,-0.7339 z m 10.8609,4.46 -2.0979,1.679 1.6259,2.046 0.6821,-0.5768 0.4198,0.525 -1.889,1.5219 -0.4199,-0.472 0.6299,-0.578 -1.6268,-1.9941 -2.4661,1.9941 2.099,2.5711 0.682,-0.5772 0.4198,0.525 -1.3637,1.1021 -4.1981,-5.195 0.5241,-0.4201 0.6299,0.735 5.3521,-4.3549 -0.629,-0.735 0.5238,-0.4201 4.0929,4.985 -1.2588,1.05 -0.4201,-0.525 0.6301,-0.525 z m 4.1978,14.4301 c -0.5249,0.2619 -1.0488,0.3149 -1.5738,0.157 -0.5771,-0.157 -0.9969,-0.525 -1.2591,-0.9969 -0.2631,-0.5242 -0.3149,-1.0491 -0.1579,-1.626 0.1579,-0.5252 0.525,-0.9451 1.0499,-1.207 0.472,-0.263 0.997,-0.3152 1.5741,-0.1581 0.5239,0.1581 0.944,0.5249 1.207,0.9969 0.2619,0.525 0.3149,1.0502 0.1571,1.5741 -0.1571,0.578 -0.525,0.9981 -0.9973,1.26 z m 9.3932,10.5471 -2.2039,0.7869 -0.2101,-0.682 c 0.4201,-0.1579 0.7339,-0.525 0.9451,-0.9969 0.2089,-0.525 0.2089,-1.05 0,-1.5741 -0.1582,-0.4731 -0.4201,-0.8929 -0.8402,-1.207 -0.3668,-0.2631 -0.8921,-0.472 -1.5219,-0.525 -0.629,-0.053 -1.3119,0.053 -2.0461,0.3671 -0.945,0.3679 -1.6271,0.8918 -2.099,1.5749 -0.4198,0.682 -0.525,1.4159 -0.2098,2.2561 0.3149,0.8918 0.997,1.4689 1.9417,1.7839 l -0.2627,0.735 c -1.154,-0.525 -1.9942,-1.3649 -2.414,-2.5189 -0.3152,-0.735 -0.3671,-1.5222 -0.3152,-2.3091 0.106,-0.7869 0.3682,-1.4689 0.8932,-2.099 0.4719,-0.6299 1.1018,-1.1021 1.889,-1.4171 0.7339,-0.2619 1.5208,-0.3668 2.3079,-0.2089 0.7351,0.1571 1.4171,0.472 2.0469,0.9961 0.5772,0.578 0.997,1.26 1.207,2.0988 0.2101,0.735 0.2101,1.47 0,2.2042 l 0.7342,0.1579 z m -3.2539,4.775 c -0.839,0.157 -1.4692,0.4189 -1.993,0.7339 -0.4731,0.3679 -0.8402,0.788 -0.9973,1.207 -0.1579,0.4731 -0.2097,0.892 -0.1048,1.26 0.0518,0.4189 0.2619,0.7869 0.5771,1.154 0.3138,0.3149 0.7339,0.5771 1.3119,0.735 0.629,0.157 1.311,0.157 2.2031,0 0.8399,-0.1579 1.5219,-0.4201 1.9938,-0.7869 0.525,-0.3682 0.8399,-0.735 0.9981,-1.207 0.1571,-0.4201 0.2089,-0.8402 0.1041,-1.26 -0.1041,-0.682 -0.5242,-1.2062 -1.207,-1.626 -0.6821,-0.3682 -1.626,-0.4731 -2.886,-0.21 z m -0.3671,-2.0472 c 0.682,-0.1049 1.4171,-0.0519 2.1521,0.2101 0.682,0.263 1.311,0.682 1.836,1.3121 0.525,0.6299 0.8918,1.3638 1.0488,2.2558 0.21,0.8402 0.1582,1.6801 -0.104,2.4662 -0.2628,0.735 -0.6829,1.417 -1.26,1.8898 -0.5769,0.5241 -1.207,0.8391 -1.9409,0.997 -0.682,0.157 -1.4171,0.0521 -2.1521,-0.2098 -0.7339,-0.21 -1.311,-0.682 -1.889,-1.3122 -0.5238,-0.5768 -0.839,-1.3648 -1.0488,-2.2039 -0.1582,-0.8921 -0.1052,-1.732 0.1568,-2.5191 0.263,-0.7339 0.682,-1.4159 1.26,-1.8888 0.5771,-0.5241 1.2069,-0.839 1.9411,-0.9972 z m -1.5219,13.3812 0.1579,3.568 6.7158,-0.21 -0.0518,-0.997 h 0.7338 v 0.8918 l 0.0531,1.8371 0.0521,0.944 -0.682,0.053 -0.0522,-0.997 -6.8737,0.2619 0.0519,1.1022 -2.9911,0.1048 -0.0519,-1.417 2.3091,-0.1049 -0.2631,-6.7691 -0.0521,-0.944 0.735,-0.053 v 0.9451 l 6.8732,-0.21 v -0.9451 l 0.6828,-0.0519 0.0522,0.944 0.053,1.7849 0.0519,0.9961 h -0.7351 v -0.9439 z m 1.207,10.2838 4.5127,4.1982 0.2623,0.053 0.1578,-0.997 0.6821,0.1049 -0.1049,0.9439 -0.2101,1.732 -0.157,0.9972 -0.6832,-0.1051 0.1052,-0.9451 -6.821,-0.8388 -0.1052,0.944 -0.6817,-0.0522 0.1049,-0.9969 0.21,-1.732 0.1049,-0.9439 0.682,0.0518 -0.1049,0.997 5.4049,0.6301 -4.5128,-4.1981 -0.4201,-0.0519 -0.157,0.9961 -0.682,-0.104 0.1048,-0.9451 0.2622,-1.7841 0.1049,-0.9439 0.682,0.104 -0.1048,0.9451 6.821,0.8399 0.1048,-0.9451 0.6832,0.0522 -0.1052,0.945 -0.21,1.7839 -0.1049,0.945 -0.682,-0.053 0.1049,-0.9969 z m -2.518,12.4892 0.9439,-3.5161 -1.364,-0.9969 -0.2101,0.8399 -0.682,-0.1571 0.629,-2.4139 0.6832,0.157 -0.2101,0.8921 6.5061,4.932 -0.2622,0.9969 -8.1859,1.3119 -0.2619,0.892 -0.682,-0.2089 0.9969,-3.5691 0.629,0.1582 -0.2092,0.9439 z m 4.5649,-0.7872 -2.9911,-2.3088 -0.8399,2.9908 3.778,-0.5768 0.3149,0.0519 v -0.0519 z m -3.4631,9.76 -0.2631,-0.2098 -3.9347,-3.9362 c -0.2101,-0.2619 -0.3682,-0.4719 -0.472,-0.7338 -0.1052,-0.2631 -0.1052,-0.578 0.0519,-0.8921 0.1049,-0.2101 0.2619,-0.472 0.4719,-0.735 l 1.05,1.1021 c -0.21,0.0519 -0.3679,0.21 -0.4198,0.3668 -0.1052,0.21 0,0.4731 0.2619,0.7872 l 4.4079,4.513 0.3671,-0.8391 0.6298,0.262 -0.3668,0.839 -0.5249,1.207 -8.0811,-0.472 -0.367,0.7351 -0.6299,-0.2631 1.4689,-3.306 0.6299,0.3149 -0.3668,0.8402 5.7719,0.3668 0.3149,0.1052 z m -7.609,5.614 2.3091,5.667 0.2619,0.1582 0.525,-0.7872 0.5771,0.3671 -0.525,0.7869 -0.9439,1.5222 -0.4723,0.8388 -0.6298,-0.3668 0.5249,-0.8402 -5.8249,-3.6729 -0.5249,0.84 -0.5772,-0.368 0.525,-0.839 0.9439,-1.522 0.4731,-0.7869 0.5772,0.368 -0.472,0.839 4.5649,2.886 -2.3091,-5.72 -0.3671,-0.262 -0.5249,0.8399 -0.5769,-0.367 0.5238,-0.7881 0.9451,-1.5208 0.472,-0.8402 0.6301,0.3671 -0.5249,0.8399 5.8249,3.6202 0.5241,-0.7861 0.578,0.3671 -0.525,0.8388 -0.9451,1.5222 -0.4719,0.7869 -0.5772,-0.3671 0.472,-0.8399 z m -4.1449,9.1831 0.472,0.4201 -0.2619,0.315 c -0.3152,0.3668 -0.4731,0.7869 -0.4201,1.2588 0.0519,0.472 0.3149,0.8391 0.682,1.1021 0.3671,0.262 0.7339,0.315 1.1018,0.262 0.3153,-0.1049 0.629,-0.315 0.8921,-0.6299 0.3149,-0.3671 0.4201,-0.7872 0.3671,-1.2061 -0.0522,-0.368 -0.2619,-0.7351 -0.5771,-0.997 l 0.4722,-0.525 1.4698,1.2589 -0.4198,0.525 -0.472,-0.1568 c 0.1037,0.7339 -0.1582,1.4689 -0.788,2.0979 -0.472,0.578 -0.9973,0.893 -1.5741,0.997 -0.5241,0.1579 -1.0491,0.053 -1.4689,-0.2619 -0.472,-0.315 -0.7351,-0.6821 -0.7872,-1.1021 -0.053,-0.4201 0.0521,-0.84 0.21,-1.2589 l 0.1571,-0.2101 -0.0519,-0.053 -0.21,0.2101 c -0.472,0.3149 -0.9451,0.525 -1.3641,0.6298 -0.4731,0.0522 -0.8929,-0.1048 -1.26,-0.3668 -0.5771,-0.3682 -0.892,-0.9972 -0.9969,-1.7841 -0.1052,-0.7869 0.3149,-1.679 1.1548,-2.7289 0.5771,-0.682 1.2062,-1.0491 1.836,-1.207 l -0.472,-0.3152 0.472,-0.5239 1.6271,1.3641 -0.4201,0.525 c -0.3668,-0.2631 -0.7869,-0.368 -1.207,-0.315 -0.472,0.1049 -0.839,0.3668 -1.2589,0.8388 -0.3679,0.525 -0.5249,0.9972 -0.4719,1.47 0.0518,0.5242 0.3138,0.8921 0.7869,1.207 0.5771,0.3671 1.0491,0.472 1.4689,0.262 0.4201,-0.2098 0.7872,-0.4729 1.0491,-0.7869 z m -8.816,6.9259 1.5741,6.245 -2.0461,1.7311 -0.4201,-0.5249 0.7351,-0.629 -4.5649,-5.1432 -0.7351,0.6301 -0.4189,-0.525 0.7339,-0.629 1.3118,-1.1551 0.7342,-0.6298 0.4201,0.5249 -0.7342,0.6299 3.8829,4.46 -1.6798,-6.2969 0.735,-0.629 6.0339,2.4659 -3.8818,-4.4079 -0.735,0.6299 -0.4201,-0.525 0.735,-0.6299 0.5239,-0.4719 0.682,-0.629 0.4731,0.5238 -0.7351,0.6302 4.5131,5.195 0.7339,-0.6301 0.4731,0.5249 -0.735,0.6302 -1.2589,1.101 z m -12.278,9.6032 c -0.263,-0.5252 -0.3679,-1.0502 -0.21,-1.574 0.157,-0.578 0.4719,-0.997 0.9969,-1.26 0.472,-0.262 0.997,-0.315 1.5741,-0.1571 0.525,0.1571 0.9451,0.4201 1.26,0.8921 0.2619,0.525 0.3671,1.0488 0.2089,1.5738 -0.157,0.5771 -0.472,0.9972 -0.9969,1.2591 -0.472,0.315 -0.997,0.3671 -1.5741,0.2101 -0.525,-0.1571 -0.9439,-0.472 -1.2589,-0.944 z" />
    <path
       id="path8"
       style="fill:#ffffff;fill-rule:evenodd"
       d="m 254.9469,293.1919 c -0.9232,1.213 -1.294,4.809 0.4799,5.832 1.3839,0.8181 2.429,1.1739 4.6959,-0.172 2.3961,-1.4179 6.355,-10.0089 7.4951,-10.9579 l 5.7631,-4.843 c -0.0992,-0.1111 -0.5891,-0.6041 -1.3062,-1.3022 0.1241,-0.1148 1.781,-1.4528 1.9139,-1.6439 3.5462,3.894 5.112,5.442 9.5752,8.7339 0.2868,0.214 4.121,3.9931 8.8279,5.4751 8.388,2.6651 18.129,2.215 21.428,1.241 3.4871,-1.05 9.4841,-3.2151 11.6691,-5.002 1.4621,-1.171 4.9379,-4.7251 5.9641,-6.2909 4.1108,-6.1892 5.2817,-14.6112 5.0258,-20.7752 -0.347,-4.3089 -1.3218,-8.979 -2.581,-13.312 -0.1258,-0.4218 -2.8839,-7.918 -4.7919,-10.3 -0.3861,-0.4878 -6.05,-10.012 -8.428,-12.8299 -12.0711,-14.256 -15.9749,-16.105 -19.3269,-19.137 2.0469,3.1159 11.5758,11.153 18.0748,21.0209 3.405,5.173 6.2541,9.2781 7.335,12.4331 1.1009,3.213 3.1841,11.857 3.467,12.7119 l 0.8612,0.1191 0.4328,7.8491 0.652,0.2999 -2.3511,8.7341 0.7311,0.3529 -4.7251,8.017 0.5502,0.6681 -7.0829,5.271 0.2798,0.8099 -6.6439,2.7879 0.275,0.93 -7.7159,-0.0998 -0.269,0.6798 -6.965,-1.5679 -0.1562,0.9531 -4.9819,-2.2471 -0.5349,0.7019 -4.835,-2.7819 -0.3201,0.267 -4.229,-3.1791 -0.4379,0.277 -3.725,-3.729 -0.4312,0.3651 -3.812,-3.706 -3.9819,4.4181 -1.8949,-1.3842 c -2.0852,2.075 -1.3533,4.4711 -6.3822,8.176 -5.2098,3.8401 -6.9061,5.241 -7.5878,6.1361 z" />
    <path
       id="path10"
       style="fill:#ffffff;fill-rule:evenodd"
       d="m 291.3789,221.0539 -14.8521,14.5851 59.1259,58.443 c -0.1041,1.5449 -0.5338,2.7029 -1.4551,3.5649 -0.7718,0.712 -2.4508,1.396 -3.6388,1.1279 l -57.1949,-60.0469 -10.1741,9.9811 -8.199,-8.2131 10.2189,-9.4609 -1.2778,-1.5302 3.2527,-3.1779 1.5302,1.455 5.896,-5.614 z" />
    <path
       id="path12"
       style="fill:#ffffff;fill-rule:evenodd"
       d="m 291.2539,231.9129 -0.4723,-0.262 -0.5249,-0.263 -0.525,-0.2101 -0.472,-0.2619 -0.5238,-0.21 -0.4731,-0.1571 -0.472,-0.1579 -0.4201,-0.21 -0.472,-0.1049 -0.4201,-0.157 -0.4719,-0.1052 -0.4198,-0.1049 -0.4193,-0.0521 -0.4198,-0.1049 -0.4201,-0.053 -0.3671,-0.0519 -0.4198,-0.053 h -0.4201 l -0.3671,-0.0522 h -1.207 l -0.3668,0.0522 h -0.3682 l -0.4198,0.053 -0.2619,0.0519 h -0.2622 l -0.2631,0.053 -0.2619,0.0521 h -0.2619 l -0.2631,0.0528 -0.2619,0.0521 -0.2619,0.053 -0.2631,0.0519 -0.2622,0.053 -0.2627,0.0522 -0.2622,0.1048 -0.262,0.0522 -0.263,0.053 -0.2619,0.0519 -0.262,0.1049 -0.263,0.053 -0.2619,0.1051 -0.2622,0.1049 -0.315,0.0522 -0.2619,0.1049 -0.2631,0.1051 -0.3149,0.1049 -0.2619,0.1049 -0.2631,0.1052 -0.314,0.1048 -0.2631,0.1052 -0.3149,0.1049 -0.3141,0.157 -0.2631,0.1049 -0.3149,0.1052 -0.3141,0.1049 -0.6828,0.2619 -0.682,0.263 -0.6821,0.2622 -0.682,0.2098 -0.682,0.21 -0.682,0.2101 -0.682,0.157 -0.6829,0.2101 -0.682,0.1049 -0.7342,0.157 -0.6817,0.1579 -0.6832,0.1052 -0.7338,0.1048 -0.6832,0.1052 -0.682,0.0519 -0.7339,0.1049 -0.682,0.0521 -0.682,0.053 -0.7351,0.053 -0.682,0.0519 h -1.364 l -0.6829,0.0522 h -2.728 l -0.6302,-0.0522 h -0.7339 l 14.5341,69.6311 1.26,-0.2101 1.207,-0.21 1.2059,-0.2098 1.1021,-0.2622 1.0499,-0.3149 1.0491,-0.2619 0.997,-0.3152 0.945,-0.315 1.8891,-0.6298 0.8917,-0.3141 1.7842,-0.6301 0.892,-0.2628 0.8391,-0.2622 0.8918,-0.2098 0.8932,-0.21 0.8387,-0.1571 0.9451,-0.1051 0.8921,-0.0519 h 0.9439 l 0.9451,0.0519 0.9439,0.157 0.9451,0.2101 0.9969,0.263 0.944,0.3671 1.0502,0.4198 1.0488,0.5241 1.05,0.578 c 0,-23.4561 0,-44.4971 0,-68.11 l -0.578,-0.3671 -0.629,-0.4198 -0.525,-0.3141 -0.5769,-0.3679 -0.5249,-0.3152 z m 8.134,0 0.5238,-0.262 0.525,-0.263 0.525,-0.2619 0.472,-0.2101 0.4719,-0.21 0.4723,-0.1571 0.4728,-0.21 0.472,-0.1579 0.4719,-0.1049 0.4201,-0.157 0.4201,-0.1052 0.472,-0.1049 0.4201,-0.1049 0.4198,-0.0521 0.3671,-0.053 0.4201,-0.0519 0.419,-0.053 0.4198,-0.0522 h 1.5222 l 0.4198,0.0522 h 0.3671 l 0.3671,0.053 h 0.263 l 0.2619,0.0519 0.2619,0.053 h 0.315 l 0.263,0.0521 0.262,0.0528 0.2622,0.0521 0.2627,0.053 0.2101,0.0519 0.3141,0.053 0.263,0.0522 0.2619,0.0518 0.262,0.1052 0.5249,0.1049 0.2631,0.1049 0.2622,0.053 0.2619,0.1051 0.2631,0.0519 0.2619,0.1052 0.3149,0.1049 0.2619,0.1051 0.2631,0.1049 0.3141,0.1049 0.263,0.1052 0.315,0.1048 0.2619,0.1052 0.3152,0.1049 0.2619,0.1049 0.3149,0.157 0.315,0.1052 0.3152,0.1049 0.682,0.2619 0.629,0.263 0.6829,0.2101 0.682,0.2619 0.682,0.21 0.7339,0.2101 1.3652,0.3141 0.682,0.1579 0.735,0.157 0.6817,0.1049 0.682,0.1582 0.7342,0.1048 0.6829,0.1052 0.682,0.0519 0.7342,0.1049 0.682,0.0521 0.6829,0.053 0.682,0.053 h 0.7339 l 0.682,0.0519 h 0.6831 l 0.682,0.0522 h 2.0461 l 0.6298,-0.0522 h 1.4171 l -14.5349,69.5781 h -0.053 l -1.2592,-0.1571 -1.207,-0.21 -1.154,-0.2098 -1.1018,-0.2622 -1.0502,-0.3149 -1.0489,-0.2619 -0.9969,-0.3152 -0.9972,-0.315 -0.9448,-0.3149 -0.8921,-0.3671 -0.892,-0.3149 -0.8921,-0.2619 -0.8921,-0.3152 -0.8917,-0.2628 -0.8391,-0.2622 -0.8921,-0.2098 -0.892,-0.21 -0.8918,-0.1571 -0.8932,-0.1051 -0.8921,-0.0519 h -0.9439 l -0.9448,0.0519 -0.9442,0.157 -0.997,0.2101 -0.945,0.263 -1.0488,0.3671 -0.997,0.4198 -1.0491,0.5241 -1.0499,0.578 c 0,-23.4561 0,-44.4971 0,-68.11 l 0.5768,-0.419 1.1551,-0.735 0.5769,-0.3149 0.5249,-0.3152 z m -4.0932,0.7871 c 6.296,-4.2502 10.8612,-5.142 15.112,-4.7231 3.043,0.368 5.8241,1.207 9.235,2.6241 6.7162,2.8338 14.482,2.9908 21.1989,2.6759 l -15.1648,72.6741 c -14.2721,-1.2592 -18.8382,-9.1301 -29.6469,-2.151 l -0.7342,0.472 -0.682,-0.472 c -10.757,-6.9791 -15.3749,0.8918 -29.5949,2.204 l -15.1639,-72.7271 c 6.664,0.3149 14.4289,0.21 21.1978,-2.6759 3.359,-1.4171 6.192,-2.2561 9.1831,-2.571 4.25,-0.472 8.8149,0.4198 15.0599,4.67 z" />
    <path
       id="path14"
       style="fill:#ffffff;fill-rule:evenodd"
       d="m 224.7418,364.301 v -35.733 h 10.826 v 13.161 h 0.1409 l 6.4389,-13.161 h 12.5241 l -10.26,16.8409 11.2509,18.8921 h -13.2318 l -6.7221,-14.506 h -0.1409 v 14.506 z m 34.247,0 v -35.733 h 29.647 v 35.733 h -11.0381 v -26.8172 h -7.5711 v 26.8172 z m 36.794,0 v -35.733 h 12.8069 c 2.2641,0 4.3161,0.2829 6.156,0.991 1.7691,0.637 3.3262,1.5568 4.599,2.759 1.203,1.203 2.194,2.6178 2.8312,4.246 0.707,1.6268 0.9899,3.4668 0.9899,5.3768 0,1.9111 -0.2121,3.609 -0.7081,5.2361 -0.5658,1.6991 -1.3439,3.1139 -2.547,4.3169 -1.1318,1.2022 -2.618,2.122 -4.3869,2.8301 -1.8399,0.7081 -4.104,1.061 -6.722,1.061 h -2.1229 v 8.9161 z m 10.8961,-26.8172 v 8.9862 h 1.6279 c 1.2739,0 2.1929,-0.3541 2.901,-1.0611 0.7778,-0.708 1.1319,-1.8399 1.1319,-3.4681 0,-1.6268 -0.3541,-2.8299 -1.1319,-3.4668 -0.7081,-0.6361 -1.6271,-0.9902 -2.901,-0.9902 z m 35.0957,26.8172 v -5.095 h -1.8388 c -4.8121,0 -8.4912,-1.1321 -11.109,-3.325 -2.548,-2.194 -3.8211,-5.5902 -3.8211,-10.1892 0,-4.1748 1.2731,-7.4298 3.8211,-9.765 2.547,-2.4058 6.1549,-3.5379 10.8958,-3.5379 h 2.052 v -4.4581 h 10.8261 v 4.4581 h 2.052 c 4.6701,0 8.2792,1.1321 10.897,3.5379 2.5472,2.3352 3.8211,5.5902 3.8211,9.765 0,4.599 -1.2739,7.9952 -3.8211,10.1892 -2.6178,2.1929 -6.298,3.325 -11.109,3.325 h -1.84 v 5.095 z m 10.8261,-22.9961 v 8.9859 c 1.982,0 3.3971,-0.3538 4.3172,-1.0619 0.9898,-0.7781 1.4148,-1.91 1.4148,-3.5371 0,-2.9009 -1.9109,-4.3869 -5.732,-4.3869 z m -10.8261,0 c -3.8208,0 -5.7308,1.486 -5.7308,4.3869 0,1.6271 0.4241,2.759 1.3439,3.5371 0.991,0.7081 2.4061,1.0619 4.3869,1.0619 z" />
  </g>
</svg>
